<svg width="64" height="64" viewBox="0 0 64 64" fill="none" xmlns="http://www.w3.org/2000/svg">
<rect width="64" height="64" rx="32" fill="#19C185"/>
<path d="M25.9235 29.8276L21.6105 23.1998C24.2977 19.8577 28.3284 18.0173 32.4494 18.0003C34.8373 17.9834 37.2761 18.5931 39.4947 19.8746C41.9447 21.2973 43.8076 23.341 44.9931 25.6895L33.4034 25.0798C30.1236 24.8878 27.0017 26.7339 25.9235 29.8276ZM27.7808 32.0011C27.7808 34.6093 29.8921 36.7207 32.5002 36.7207C35.1083 36.7207 37.2196 34.6093 37.2196 32.0011C37.2196 29.3929 35.1083 27.2815 32.5002 27.2815C29.8921 27.2815 27.7808 29.3873 27.7808 32.0011ZM45.5577 26.9653L37.6713 27.3718C39.8108 29.8728 39.8447 33.4802 38.0438 36.2465L31.7155 45.9793C34.3406 46.1204 37.0446 45.5446 39.4947 44.1219C45.5577 40.6217 48.0133 33.2826 45.5577 26.9653ZM26.0477 34.6883L20.7807 24.3289C19.3411 26.5306 18.5 29.1727 18.5 32.0011C18.5 39.0015 23.6259 44.7994 30.3268 45.8269L33.9228 38.7813C30.6711 39.391 27.5324 37.6071 26.0477 34.6883Z" fill="white"/>
</svg>