<svg width="129" height="32" viewBox="0 0 129 32" fill="none" xmlns="http://www.w3.org/2000/svg">
<g clip-path="url(#clip0_1083_4472)">
<path d="M23.6905 3.0489L26.2407 6.64178V3.05059H27.4826V8.65158H26.1207L23.5851 5.06997V8.65158H22.341V3.0489H23.6905ZM33.3866 3.05059L33.3793 4.25873H31.6246L31.632 8.65214H30.3326V4.25873H28.5802V3.05059H33.3866ZM39.1491 3.05059V4.25873H37.3945V8.65214H36.0957V4.25873H34.3411V3.05059H39.1491ZM5.0646 19.8885C5.0646 17.6794 6.57018 15.5142 9.35088 15.5142C12.1333 15.5142 13.5893 17.5876 13.6377 19.7747V20.0022C13.5893 22.1888 12.1333 24.2627 9.35088 24.2627C6.57018 24.2627 5.0646 22.0976 5.0646 19.8885V19.8885ZM13.5729 3.04834V11.941C12.3654 11.2424 10.919 10.8263 9.24551 10.8263C3.25306 10.8263 0.0683594 15.4872 0.0683594 19.8918C0.0683594 24.2853 3.25306 28.9517 9.24495 28.9517C13.747 28.9517 15.429 26.7787 18.568 25.3397V3.04834H13.5729ZM30.6662 24.2633C27.8844 24.2633 26.3782 22.0987 26.3782 19.889C26.3782 17.6799 27.8844 15.5147 30.6662 15.5147C33.4486 15.5147 34.9553 17.6799 34.9553 19.889C34.9553 22.0987 33.4486 24.2633 30.6662 24.2633ZM30.6718 10.8269C24.7385 10.8269 21.3831 15.4489 21.3831 19.8924C21.3831 24.3235 24.738 28.9517 30.6718 28.9517C36.595 28.9517 39.9504 24.3241 39.9504 19.8924C39.9504 15.4483 36.595 10.8269 30.6718 10.8269V10.8269ZM42.273 19.8885C42.273 24.8426 45.8555 28.7327 51.5155 28.7327H56.7411V24.0432H51.9854C48.9461 24.0432 47.2681 22.2428 47.2681 19.8885C47.2681 17.5364 48.9461 15.7337 51.9854 15.7337H56.7411V11.0465H51.5155C45.8561 11.0465 42.273 14.9349 42.273 19.889V19.8885ZM68.327 24.2633C65.5452 24.2633 64.0391 22.0987 64.0391 19.889C64.0391 17.6799 65.5452 15.5147 68.327 15.5147C71.1089 15.5147 72.615 17.6799 72.615 19.889C72.615 22.0987 71.1089 24.2633 68.327 24.2633ZM68.3327 10.8269C62.3983 10.8269 59.0428 15.4489 59.0428 19.8924C59.0428 24.3235 62.3983 28.9517 68.3327 28.9517C74.2547 28.9517 77.6101 24.3241 77.6101 19.8924C77.6101 15.4483 74.2552 10.8269 68.3327 10.8269V10.8269ZM99.5655 10.8269C97.6509 10.8269 95.8681 11.2131 93.5573 12.7691C91.2448 11.2131 89.4609 10.8269 87.5479 10.8269C83.2915 10.8269 80.3176 13.7515 80.3176 17.9637V28.7333H85.3127V18.2142C85.3127 16.4138 86.4114 15.5153 88.2145 15.5153C90.1218 15.5153 91.0628 16.465 91.0628 17.9873V28.7344H96.0517V17.9862C96.0517 16.4639 96.9933 15.5142 98.9001 15.5142C100.703 15.5142 101.8 16.4127 101.8 18.2131V28.7333H106.795V17.9637C106.795 13.7515 103.823 10.8269 99.5655 10.8269V10.8269ZM118.785 24.2633C116.003 24.2633 114.497 22.0987 114.497 19.889C114.497 17.6799 116.003 15.5147 118.785 15.5147C121.567 15.5147 123.073 17.6799 123.073 19.889C123.073 22.0987 121.567 24.2633 118.785 24.2633ZM118.791 10.8269C112.857 10.8269 109.501 15.4489 109.501 19.8924C109.501 24.3235 112.857 28.9517 118.791 28.9517C124.713 28.9517 128.068 24.3241 128.068 19.8924C128.068 15.4483 124.714 10.8269 118.791 10.8269" fill="#05294B"/>
</g>
<defs>
<clipPath id="clip0_1083_4472">
<rect width="128" height="31" fill="white" transform="translate(0.0683594 0.5)"/>
</clipPath>
</defs>
</svg>