<svg width="65" height="64" viewBox="0 0 65 64" fill="none" xmlns="http://www.w3.org/2000/svg">
<rect x="0.5" width="64" height="64" rx="32" fill="#FEE36F"/>
<path d="M25.1023 21.3088V29.9237" stroke="#041D34" stroke-width="2" stroke-miterlimit="10" stroke-linecap="round" stroke-linejoin="round"/>
<path d="M25.0939 38.5859V47.2008" stroke="#041D34" stroke-width="2" stroke-miterlimit="10" stroke-linecap="round" stroke-linejoin="round"/>
<path d="M17.6243 34.2584V42.8733" stroke="#041D34" stroke-width="2" stroke-miterlimit="10" stroke-linecap="round" stroke-linejoin="round"/>
<path d="M47.5297 34.2524V42.8673" stroke="#041D34" stroke-width="2" stroke-miterlimit="10" stroke-linecap="round" stroke-linejoin="round"/>
<path d="M40.0559 21.3088V29.9237" stroke="#041D34" stroke-width="2" stroke-miterlimit="10" stroke-linecap="round" stroke-linejoin="round"/>
<path d="M32.5791 25.6185V42.8673" stroke="#041D34" stroke-width="2" stroke-miterlimit="10" stroke-linecap="round" stroke-linejoin="round"/>
<path d="M40.0594 38.5757V47.1905" stroke="#041D34" stroke-width="2" stroke-miterlimit="10" stroke-linecap="round" stroke-linejoin="round"/>
<path d="M32.5785 17.0042L25.1005 21.3131V21.3089L32.5785 25.6184L40.0559 21.3089L32.5785 17" stroke="#041D34" stroke-width="2" stroke-miterlimit="10" stroke-linecap="round" stroke-linejoin="round"/>
<path d="M32.5785 34.2681L40.0559 38.577L40.0565 38.5782L47.5339 34.2693V34.2585L40.0559 29.9496L32.5785 34.2585" stroke="#041D34" stroke-width="2" stroke-miterlimit="10" stroke-linecap="round" stroke-linejoin="round"/>
<path d="M32.5785 34.2428L25.1005 29.9338L25.1023 29.9494L17.6243 34.2583L25.1023 38.5672L25.0999 38.5606L32.5779 34.2511" stroke="#041D34" stroke-width="2" stroke-miterlimit="10" stroke-linecap="round" stroke-linejoin="round"/>
<path d="M32.5785 42.8673L40.0559 47.1762H40.0523L47.5297 42.8673" stroke="#041D34" stroke-width="2" stroke-miterlimit="10" stroke-linecap="round" stroke-linejoin="round"/>
<path d="M32.5749 42.8917L25.0975 47.2006H25.1023L17.6243 42.8917" stroke="#041D34" stroke-width="2" stroke-miterlimit="10" stroke-linecap="round" stroke-linejoin="round"/>
</svg>