<svg width="65" height="64" viewBox="0 0 65 64" fill="none" xmlns="http://www.w3.org/2000/svg">
<rect x="0.5" width="64" height="64" rx="32" fill="#FE565B"/>
<path d="M31.6926 35.0342C31.9554 35.1502 32.2393 35.2098 32.5262 35.2092C32.8053 35.2073 33.0811 35.1477 33.3365 35.0342C33.5963 34.9295 33.8311 34.7704 34.0254 34.5675C34.4277 34.1592 34.6561 33.6088 34.6621 33.0334C34.6646 32.7467 34.6095 32.4624 34.5001 32.1977C34.3906 31.933 34.2292 31.6934 34.0254 31.4934C33.8325 31.2816 33.5979 31.1127 33.3365 30.9976C32.8062 30.7992 32.2229 30.7992 31.6926 30.9976C31.4258 31.1181 31.1826 31.286 30.9749 31.4934C30.7731 31.695 30.613 31.9349 30.5038 32.1993C30.3945 32.4636 30.3382 32.747 30.3381 33.0334C30.3442 33.6088 30.5726 34.1592 30.9749 34.5675C31.1838 34.766 31.4271 34.9241 31.6926 35.0342V35.0342Z" stroke="white" stroke-width="2" stroke-linecap="round" stroke-linejoin="round"/>
<path d="M16.6715 32.8292H30.176" stroke="white" stroke-width="2" stroke-linecap="round" stroke-linejoin="round"/>
<path d="M34.9341 32.8292H48.2475" stroke="white" stroke-width="2" stroke-linecap="round" stroke-linejoin="round"/>
<path d="M44.9481 22.125H20.0519C18.1338 22.125 16.5789 23.692 16.5789 25.625V39.9167C16.5789 41.8497 18.1338 43.4167 20.0519 43.4167H44.9481C46.8662 43.4167 48.4212 41.8497 48.4212 39.9167V25.625C48.4212 23.692 46.8662 22.125 44.9481 22.125Z" stroke="white" stroke-width="2" stroke-linecap="round" stroke-linejoin="round"/>
<path d="M26.1183 22.125V20.0834C26.1183 19.1551 26.4842 18.2649 27.1355 17.6085C27.7868 16.9521 28.6702 16.5834 29.5914 16.5834H35.3798C36.3009 16.5834 37.1843 16.9521 37.8357 17.6085C38.487 18.2649 38.8529 19.1551 38.8529 20.0834V22.125" stroke="white" stroke-width="2" stroke-linecap="round" stroke-linejoin="round"/>
</svg>