<svg width="208" height="31" viewBox="0 0 208 31" fill="none" xmlns="http://www.w3.org/2000/svg">
<g clip-path="url(#clip0_777_3417)">
<path fill-rule="evenodd" clip-rule="evenodd" d="M99.055 8.35144C99.055 12.5212 98.6435 25.4677 98.6435 25.4677C98.6435 27.972 99.4665 29.0823 101.829 29.0823V30.1927H92.542V29.0823C94.8933 29.0823 96.1512 27.972 96.1512 25.4677L96.9741 4.31158C96.794 3.61 96.3789 2.99214 95.7987 2.56189C95.2184 2.13165 94.5085 1.91525 93.7882 1.94908V0.980469H100.842L108.319 20.7309L115.937 0.980469H122.309V2.00815C121.931 1.94993 121.545 1.98186 121.182 2.10137C120.819 2.22088 120.489 2.42459 120.219 2.69603C119.949 2.96748 119.746 3.29903 119.627 3.66383C119.508 4.02864 119.477 4.41645 119.535 4.79589L120.369 25.2433C120.369 28.3145 120.922 29.1414 123.414 29.1414V30.2518H112.751V29.1414C114.832 29.1414 115.796 28.4445 115.655 25.2433C115.655 25.2433 115.243 10.9148 115.102 8.41051L109.988 22.5855C109.217 24.583 108.569 26.6265 108.049 28.7043L106.379 28.8461C105.968 27.3105 104.863 24.5227 104.863 24.5227C104.863 24.5227 100.572 12.4267 98.9845 8.38688L99.055 8.35144Z" fill="#05294B"/>
<path fill-rule="evenodd" clip-rule="evenodd" d="M90.3548 30.3581C89.8065 30.2401 89.2456 30.1925 88.6854 30.2163C87.5803 30.2163 85.6405 30.7833 83.2892 30.7833C74.2839 30.7833 67.6416 25.3496 67.6416 15.3326C67.6416 6.83945 73.8724 0.307148 83.4303 0.307148C85.7486 0.303848 88.0479 0.728255 90.2137 1.55927C90.6252 1.14583 90.7662 0.862329 91.1895 0.448892H92.0124C91.8713 1.9727 91.3188 6.98121 91.3188 6.98121H90.4959C89.9433 4.06353 88.415 2.11446 83.5714 2.11446C77.752 2.11446 72.4852 6.70952 72.4852 15.1909C72.4852 24.7944 77.8931 28.9642 83.8418 28.9642C87.7214 28.9642 90.0726 26.7435 91.6009 23.9557L92.565 24.381L90.3548 30.3581Z" fill="#05294B"/>
<path fill-rule="evenodd" clip-rule="evenodd" d="M64.1854 6.4024H63.2097C63.0686 3.75641 62.2457 2.92953 60.1648 2.92953H56.1441V24.7708C56.1441 28.3854 56.8377 29.0823 59.189 29.0823V30.1927H48.8082V29.0823C51.1594 29.0823 51.8531 28.3854 51.8531 24.629V2.92953H47.8442C45.2108 2.92953 44.7875 3.62647 44.1057 6.4024H43.1299L43.8235 0.141785L44.5171 0.283529C44.7875 0.980464 45.3518 0.980478 47.0095 0.980478H60.4469C62.9393 0.980478 63.4918 0.98047 64.0444 0.141785H64.8673L64.1854 6.4024Z" fill="#05294B"/>
<path fill-rule="evenodd" clip-rule="evenodd" d="M34.8179 30.8895C33.2681 30.9338 31.723 30.6977 30.2564 30.1926C29.4249 30.0021 28.6304 29.6748 27.9052 29.2239C27.5395 29.6048 27.2162 30.0247 26.9412 30.4761L26.1064 30.1926L26.8001 23.6603L27.7758 23.802C28.3284 26.8614 30.3975 29.0822 34.7003 29.0822C35.4484 29.0762 36.1877 28.9202 36.875 28.6234C37.5623 28.3266 38.1836 27.8948 38.7027 27.3535C39.2217 26.8122 39.6279 26.1722 39.8975 25.4711C40.1672 24.77 40.2947 24.0218 40.2728 23.2705C40.2728 20.7662 39.297 19.5141 35.9818 17.0098C34.9676 16.4264 33.9936 15.7753 33.0662 15.0608C30.0213 13.1235 28.0815 10.891 28.0815 7.27637C28.0815 3.09475 31.5496 0.318815 36.1111 0.318815C37.7944 0.295558 39.4589 0.676209 40.9664 1.42917L41.9305 0.318815L42.6241 0.460559L41.9305 6.43767L40.9664 6.29593C40.9664 3.51999 39.297 2.26787 36.5343 2.26787C33.7716 2.26787 31.9611 3.66174 31.9611 6.29593C31.9611 8.65842 33.7598 10.194 35.8407 11.5879C36.9458 12.2848 37.7805 12.84 38.6034 13.3952C43.4588 16.8799 44.5639 19.1007 44.5639 22.4436C44.5639 27.3103 40.8254 30.9249 34.8649 30.9249L34.8179 30.8895Z" fill="#05294B"/>
<path fill-rule="evenodd" clip-rule="evenodd" d="M19.0297 6.40236H17.9364C17.9364 3.89811 16.8313 2.92949 14.6211 2.92949H8.37853V13.9151H12.3992C14.4801 13.9151 14.8915 12.8047 15.1737 10.9974H16.1377V18.7818H15.1737C14.8915 16.7028 14.4801 15.8641 12.2581 15.8641H8.37853V25.1842C8.37853 28.6689 9.21323 29.0823 11.4352 29.0823V30.1927H0.854492V29.0823C3.48791 29.0823 3.91114 28.3854 3.91114 25.1842V4.7368C3.91114 2.78774 3.07644 1.94905 0.854492 1.94905V0.980437H15.256C17.7483 0.980437 18.3126 0.838686 18.7241 0H19.6881L18.9945 6.40236H19.0297Z" fill="#05294B"/>
<path fill-rule="evenodd" clip-rule="evenodd" d="M168.417 8.06796V24.7708C168.417 28.3854 169.252 29.0823 171.474 29.0823V30.1927H155.132V29.0823C156.379 29.0823 157.484 28.6689 157.484 27.8302C157.447 26.982 157.308 26.1412 157.072 25.326L155.814 21.2979H146.68C146.539 21.8531 144.881 26.4364 144.881 27.6885C144.881 28.9406 146.127 29.0823 146.962 29.0823V30.1927H139.379V29.0823C140.766 29.0823 141.871 28.9406 142.835 26.0229L149.889 3.34296C149.737 2.95271 149.472 2.6171 149.128 2.37925C148.785 2.14141 148.378 2.01218 147.961 2.00815V1.03952H154.192L161.669 24.8299C162.363 27.3341 163.056 28.5862 164.161 29.1414C165.831 28.5862 166.242 28.031 166.242 24.8299V4.74865C164.996 3.05947 164.89 2.00815 162.539 2.00815V1.03952H169.593L181.196 20.9081V5.70546C181.196 2.64603 180.503 1.94908 178.151 1.94908V0.980469H193.658V2.00815C192.694 2.00815 191.859 2.43339 191.859 3.40201C191.93 4.16621 192.116 4.9151 192.412 5.62276L196.844 15.2263L201.135 5.90627C201.653 5.11952 201.942 4.20313 201.97 3.26027C201.97 2.4334 201.417 2.00815 200.171 2.00815V1.03952H207.507V2.00815C205.708 2.00815 204.603 3.68552 203.768 5.62276L198.09 17.3171V24.9716C198.09 28.3145 198.925 29.1414 201.135 29.1414V30.2518H190.613V29.1414C192.835 29.1414 193.658 28.3145 193.658 24.9716V18.4275L187.568 5.49283C186.463 2.98858 186.04 2.43339 185.346 1.94908C183.971 2.50427 183.547 3.48471 183.547 5.70546V27.1333C183.547 27.1333 183.688 28.8107 183.83 30.7597L182.031 30.8897L168.417 8.06796ZM151.147 6.73314L147.256 19.3489H155.285L151.147 6.73314Z" fill="#05294B"/>
<path fill-rule="evenodd" clip-rule="evenodd" d="M133.971 19.3488H131.902V25.326C131.902 28.3854 132.725 29.0823 135.088 29.0823V30.1927H124.425V29.0823C126.635 29.0823 127.47 28.2554 127.47 25.1842V5.55187C127.47 2.49244 126.635 1.93726 124.425 1.93726V0.968628H132.454C140.202 0.968628 144.775 3.33112 144.775 9.73348C144.775 16.4075 139.238 19.337 133.971 19.337V19.3488ZM132.595 2.9295H131.902V17.258H133.148C137.709 17.258 140.072 15.1672 140.072 9.88705C140.072 4.60687 137.992 2.9295 132.595 2.9295Z" fill="#05294B"/>
<path fill-rule="evenodd" clip-rule="evenodd" d="M85.6405 24.6291C80.3854 24.6291 76.7762 20.8727 76.7762 15.4508C76.7334 14.2563 76.9314 13.0654 77.3581 11.9496C77.7848 10.8339 78.4315 9.81628 79.2594 8.95794C80.0873 8.0996 81.0794 7.41823 82.1759 6.95473C83.2725 6.49123 84.4509 6.25517 85.6405 6.26072C90.6252 6.26072 94.3637 10.1588 94.3637 15.4508C94.3997 16.6313 94.2017 17.8071 93.7812 18.91C93.3607 20.0128 92.726 21.0206 91.9143 21.8747C91.1025 22.7289 90.1298 23.4122 89.0527 23.8851C87.9757 24.358 86.8158 24.6109 85.6405 24.6291V24.6291ZM85.6405 7.93809C82.0431 7.93809 80.7969 11.411 80.7969 15.4508C80.7969 19.2072 81.902 22.9636 85.6405 22.9636C89.379 22.9636 90.343 19.2072 90.343 15.3091C90.343 11.4109 88.9558 7.93809 85.6405 7.93809V7.93809Z" fill="#05294B"/>
<path fill-rule="evenodd" clip-rule="evenodd" d="M24.7078 22.9634V21.9829C26.0951 21.9829 26.3772 21.5695 26.3772 21.156C26.3657 20.6783 26.2702 20.2064 26.0951 19.7622C26.0951 19.7622 25.8247 18.6518 25.5425 17.8131H20.1464L19.5938 19.6204C19.4199 20.065 19.3244 20.5367 19.3117 21.0143C19.3117 21.5695 19.8642 21.9829 20.6989 21.9829V22.9634H15.291V21.9829C16.6783 21.9829 17.2308 21.5695 17.7833 20.0457L21.9451 7.51263C21.8724 7.20831 21.6908 6.94147 21.4351 6.76287C21.1793 6.58427 20.8671 6.50637 20.5578 6.544V5.55176H24.99C28.5874 16.183 29.5632 18.9117 29.5632 18.9117C30.2568 21.2742 30.9504 21.9711 32.0555 21.9711V22.9515L24.7078 22.9634ZM22.7798 9.46168L20.6989 16.2775H24.99L22.7798 9.46168Z" fill="#05294B"/>
</g>
<defs>
<clipPath id="clip0_777_3417">
<rect width="206.617" height="30.8896" fill="white" transform="translate(0.889648)"/>
</clipPath>
</defs>
</svg>