<svg width="65" height="64" viewBox="0 0 65 64" fill="none" xmlns="http://www.w3.org/2000/svg">
<rect x="0.5" width="64" height="64" rx="32" fill="#52D0F0"/>
<path d="M32.4441 21.3441L33.3068 19.9283C33.8394 19.0435 35.027 18.7452 35.9589 19.2508C36.8909 19.7564 37.2051 20.8839 36.6726 21.7688L28.3594 35.4306H34.3719C36.3211 35.4306 37.4128 37.6048 36.5661 39.1115H18.9385C17.8627 39.1115 17 38.2924 17 37.2711C17 36.2497 17.8627 35.4306 18.9385 35.4306H23.8806L30.2074 25.0199L28.2316 21.7637C27.699 20.8789 28.0132 19.7615 28.9452 19.2457C29.8772 18.7401 31.0541 19.0384 31.5973 19.9233L32.4441 21.3441ZM24.967 41.0076L23.1031 44.0767C22.5705 44.9616 21.3829 45.2599 20.451 44.7543C19.519 44.2486 19.2048 43.1211 19.7373 42.2363L21.122 39.961C22.6877 39.5009 23.9605 39.8548 24.967 41.0076ZM41.0182 35.4407H46.0615C47.1373 35.4407 48 36.2598 48 37.2812C48 38.3026 47.1373 39.1217 46.0615 39.1217H43.2603L45.1508 42.2363C45.6834 43.1211 45.3692 44.2385 44.4372 44.7543C43.5052 45.2599 42.3283 44.9616 41.7851 44.0767C38.6004 38.8335 36.2092 34.9098 34.6222 32.2958C32.9979 29.6362 34.1589 26.9666 35.3039 26.0615C36.5767 28.1345 38.4779 31.2643 41.0182 35.4407Z" fill="white"/>
</svg>