<svg width="64" height="64" viewBox="0 0 64 64" fill="none" xmlns="http://www.w3.org/2000/svg">
<path d="M32 64C49.6731 64 64 49.6731 64 32C64 14.3269 49.6731 0 32 0C14.3269 0 0 14.3269 0 32C0 49.6731 14.3269 64 32 64Z" fill="#8A78F0"/>
<path d="M28.92 21.41L17.1901 36.48L27.1901 46.48L42.2901 34.75" stroke="white" stroke-width="2" stroke-linecap="round" stroke-linejoin="round"/>
<path d="M26.42 45.72L33.1001 52.39" stroke="white" stroke-width="2" stroke-linecap="round" stroke-linejoin="round"/>
<path d="M33.6001 25.06C34.2777 24.3824 35.1968 24.0017 36.1551 24.0017C37.1134 24.0017 38.0325 24.3824 38.7101 25.06C39.3877 25.7377 39.7684 26.6567 39.7684 27.615C39.7684 28.5733 39.3877 29.4924 38.7101 30.17" stroke="white" stroke-width="2" stroke-linecap="round" stroke-linejoin="round"/>
<path d="M51.89 28.26H47.15" stroke="white" stroke-width="2" stroke-linecap="round" stroke-linejoin="round"/>
<path d="M48.3901 15.71L44.3301 19.77" stroke="white" stroke-width="2" stroke-linecap="round" stroke-linejoin="round"/>
<path d="M35.8401 12V16.74" stroke="white" stroke-width="2" stroke-linecap="round" stroke-linejoin="round"/>
<path d="M17.21 36.48L13.32 40.37C12.575 41.1194 12.1569 42.1332 12.1569 43.19C12.1569 44.2467 12.575 45.2605 13.32 46.01L17.73 50.42C18.4795 51.165 19.4933 51.5831 20.55 51.5831C21.6068 51.5831 22.6206 51.165 23.37 50.42L27.26 46.53" stroke="white" stroke-width="2" stroke-linecap="round" stroke-linejoin="round"/>
<path d="M43.99 36.48L38.19 30.68L33.09 25.6L27.21 19.73" stroke="white" stroke-width="2" stroke-linecap="round" stroke-linejoin="round"/>
</svg>