<svg
  width="64"
  height="64"
  viewBox="0 0 64 64"
  fill="none"
  xmlns="http://www.w3.org/2000/svg"
>
  <rect width="64" height="64" rx="32" fill="#19C185" />
  <path
    d="M40 48H24C22.0357 48 20 46.2 20 44C20 41.8 22.0357 40 24 40H44C44.5 40 45 40.44 45 41C45 41.56 44.5 42 44 42H24C23.0179 42 22 42.9 22 44C22 45.1 23.0179 46 24 46H39V42C39 41.44 39.5 41 40 41C40.5 41 41 41.44 41 42V47C41 47.56 40.5 48 40 48Z"
    fill="white"
  />
  <path
    d="M21 45C20.5 45 20 44.4903 20 44V18C20 16.5467 21.5179 15 23 15H42C43.4821 15 45 16.4292 45 17.8825V41C45 41.4903 44.5 42 44 42C43.5 42 43 41.4903 43 41V17.8825C43 17.3922 42.5 17 42 17H23C22.5 17 22 17.5097 22 18V44C22 44.4903 21.5 45 21 45Z"
    fill="white"
  />
  <path
    d="M38.125 25H25.875C25.385 25 25 24.56 25 24C25 23.44 25.385 23 25.875 23H38.125C38.615 23 39 23.44 39 24C39 24.56 38.615 25 38.125 25Z"
    fill="white"
  />
  <path
    d="M35.1538 30H25.8462C25.3723 30 25 29.56 25 29C25 28.44 25.3723 28 25.8462 28H35.1538C35.6277 28 36 28.44 36 29C36 29.56 35.6277 30 35.1538 30Z"
    fill="white"
  />
  <path
    d="M39.0625 35H25.9375C25.4125 35 25 34.56 25 34C25 33.44 25.4125 33 25.9375 33H39.0625C39.5875 33 40 33.44 40 34C40 34.56 39.5875 35 39.0625 35Z"
    fill="white"
  />
</svg>
