<svg width="66" height="67" viewBox="0 0 66 67" fill="none" xmlns="http://www.w3.org/2000/svg">
<rect y="0.5" width="66" height="66" rx="33" fill="#8A78F0"/>
<path d="M24.4485 37.4055C24.4485 39.123 23.0604 40.5111 21.3429 40.5111C19.6254 40.5111 18.2373 39.123 18.2373 37.4055C18.2373 35.688 19.6254 34.2999 21.3429 34.2999H24.4485V37.4055ZM26.0013 37.4055C26.0013 35.688 27.3894 34.2999 29.1069 34.2999C30.8244 34.2999 32.2125 35.688 32.2125 37.4055V45.1695C32.2125 46.8869 30.8244 48.2751 29.1069 48.2751C27.3894 48.2751 26.0013 46.8869 26.0013 45.1695V37.4055Z" fill="white"/>
<path d="M29.106 24.936C27.3885 24.936 26.0004 23.5479 26.0004 21.8304C26.0004 20.113 27.3885 18.7249 29.106 18.7249C30.8235 18.7249 32.2116 20.113 32.2116 21.8304V24.936H29.106ZM29.106 26.5124C30.8235 26.5124 32.2116 27.9005 32.2116 29.6179C32.2116 31.3354 30.8235 32.7235 29.106 32.7235H21.3185C19.601 32.7235 18.2129 31.3354 18.2129 29.6179C18.2129 27.9005 19.601 26.5124 21.3185 26.5124H29.106Z" fill="white"/>
<path d="M41.5521 29.6179C41.5521 27.9005 42.9402 26.5124 44.6577 26.5124C46.3751 26.5124 47.7632 27.9005 47.7632 29.6179C47.7632 31.3354 46.3751 32.7235 44.6577 32.7235H41.5521V29.6179ZM39.9993 29.6179C39.9993 31.3354 38.6112 32.7235 36.8937 32.7235C35.1762 32.7235 33.7881 31.3354 33.7881 29.6179V21.8304C33.7881 20.113 35.1762 18.7249 36.8937 18.7249C38.6112 18.7249 39.9993 20.113 39.9993 21.8304V29.6179Z" fill="white"/>
<path d="M36.8937 42.0639C38.6112 42.0639 39.9993 43.452 39.9993 45.1695C39.9993 46.8869 38.6112 48.2751 36.8937 48.2751C35.1762 48.2751 33.7881 46.8869 33.7881 45.1695V42.0639H36.8937ZM36.8937 40.5111C35.1762 40.5111 33.7881 39.123 33.7881 37.4055C33.7881 35.688 35.1762 34.2999 36.8937 34.2999H44.6812C46.3987 34.2999 47.7868 35.688 47.7868 37.4055C47.7868 39.123 46.3987 40.5111 44.6812 40.5111H36.8937Z" fill="white"/>
</svg>