<svg width="219" height="32" viewBox="0 0 219 32" fill="none" xmlns="http://www.w3.org/2000/svg">
<g clip-path="url(#clip0_777_3393)">
<path d="M61.8097 0H41.4941V10.3615H61.8097V0Z" fill="#05294B"/>
<path d="M0.863281 0V10.3615H11.021V31.077H21.1788V10.3615H31.3366V0H0.863281Z" fill="#05294B"/>
<path d="M31.3369 31.0771H41.4947H61.8177V20.7156H41.4947V10.3616H31.3369V31.0771Z" fill="#05294B"/>
<path d="M87.7104 7.83344H72.7832V12.135H77.7791V25.6586H82.7146V12.135H87.7104V7.83344Z" fill="#05294B"/>
<path d="M93.3393 12.0067C89.8302 12.0067 87.2266 14.3764 87.2266 18.9873C87.2266 23.0852 89.4453 25.9378 93.4676 25.9378C95.389 25.9523 97.2762 25.4295 98.9163 24.4285L97.1655 21.5004C96.1139 22.114 94.9191 22.4394 93.7016 22.4437C93.4097 22.4646 93.1167 22.4247 92.8411 22.3265C92.5655 22.2283 92.3133 22.0739 92.1005 21.8731C91.8876 21.6724 91.7188 21.4296 91.6047 21.1602C91.4906 20.8907 91.4337 20.6006 91.4376 20.308H99.2861C99.2861 20.0741 99.2861 19.7948 99.2861 19.4175C99.2936 14.4292 96.9994 12.0067 93.3393 12.0067ZM91.43 17.4327C91.5885 16.1045 92.1847 15.3951 93.2186 15.3951C94.5619 15.3951 95.0222 16.0819 95.2562 17.4327H91.43Z" fill="#05294B"/>
<path d="M107.98 22.2172C106.735 22.2172 106.093 21.1229 106.093 19.0098C106.093 16.8968 106.682 15.7271 107.852 15.7271C108.848 15.7271 109.278 16.2855 109.912 17.4552L113.074 15.063C111.904 13.1763 110.448 12.0443 107.927 12.0443C103.648 12.0443 101.558 14.8743 101.558 18.9721C101.558 23.5001 103.905 25.9754 107.829 25.9754C110.199 25.9754 111.647 25.0849 113.202 22.7907L110.297 20.5267C109.459 21.7342 108.848 22.2172 107.98 22.2172Z" fill="#05294B"/>
<path d="M123.768 12.0068C122.545 11.9827 121.353 12.3977 120.41 13.1766V7.09399L115.821 8.92782V25.6587H120.41V18.014C120.41 16.3386 120.991 15.8783 121.964 15.8783C122.938 15.8783 123.474 16.3386 123.474 18.0668V25.6587H128.085V17.4857C128.1 13.969 126.696 12.0068 123.768 12.0068Z" fill="#05294B"/>
<path d="M139.155 21.6362C137.012 21.6362 136.136 19.4703 136.136 16.7459C136.136 14.0216 137.027 11.8557 139.095 11.8557C140.725 11.8557 141.359 12.8972 141.97 14.5499L146.452 12.7991C145.23 9.43326 143.502 7.51642 139.117 7.51642C134.333 7.51642 130.967 10.9803 130.967 16.7158C130.967 21.9984 133.797 25.9075 139.095 25.9075C143.321 25.9075 145.305 23.6436 146.505 21.2966L142.332 19.0929C141.366 20.7909 140.702 21.6362 139.155 21.6362Z" fill="#05294B"/>
<path d="M153.871 13.2519V12.301H149.29V25.6586H153.871V18.3761C153.871 16.746 154.558 16.2102 155.682 16.2102C156.098 16.2307 156.504 16.3412 156.873 16.5341C157.241 16.7269 157.564 16.9975 157.818 17.3271L158.889 12.5652C158.096 12.1032 157.171 11.9199 156.262 12.0443C155.352 12.1688 154.511 12.5939 153.871 13.2519V13.2519Z" fill="#05294B"/>
<path d="M168.745 19.9307C168.745 21.606 168.156 22.0664 167.236 22.0664C166.315 22.0664 165.726 21.606 165.726 19.8778V12.301H161.115V20.4589C161.115 23.9757 162.519 25.9378 165.447 25.9378C166.664 25.9626 167.848 25.5472 168.783 24.768V25.6586H173.333V12.301H168.722L168.745 19.9307Z" fill="#05294B"/>
<path d="M184.654 12.0066C183.428 11.984 182.235 12.3987 181.288 13.1763V12.3009H176.707V25.6585H181.288V18.0137C181.288 16.3384 181.876 15.878 182.842 15.878C183.808 15.878 184.352 16.3384 184.352 18.0666V25.6585H188.963V17.4855C188.97 13.9687 187.567 12.0066 184.654 12.0066Z" fill="#05294B"/>
<path d="M198.086 22.2172C196.833 22.2172 196.2 21.1229 196.2 19.0098C196.2 16.8968 196.788 15.7271 197.958 15.7271C198.954 15.7271 199.384 16.2855 200.018 17.4552L203.18 15.063C202.01 13.1763 200.554 12.0443 198.033 12.0443C193.754 12.0443 191.664 14.8743 191.664 18.9721C191.664 23.5001 194.011 25.9754 197.935 25.9754C200.297 25.9754 201.754 25.0849 203.308 22.7907L200.403 20.5267C199.565 21.7342 198.992 22.2172 198.086 22.2172Z" fill="#05294B"/>
<path d="M213.874 12.0068C212.651 11.9827 211.46 12.3977 210.516 13.1766V7.09399L205.928 8.92782V25.6587H210.516V18.014C210.516 16.3386 211.097 15.8783 212.071 15.8783C213.044 15.8783 213.58 16.3386 213.58 18.0668V25.6587H218.191V17.4857C218.206 13.969 216.802 12.0068 213.874 12.0068Z" fill="#05294B"/>
</g>
<defs>
<clipPath id="clip0_777_3393">
<rect width="217.343" height="31.077" fill="white" transform="translate(0.863281)"/>
</clipPath>
</defs>
</svg>