<svg width="94" height="94" viewBox="0 0 94 94" fill="none" xmlns="http://www.w3.org/2000/svg">
<path d="M25 77.25L16.75 91" stroke="white" stroke-width="5.86667" stroke-linecap="round" stroke-linejoin="round"/>
<path d="M66.25 77.25L74.5 91" stroke="white" stroke-width="5.86667" stroke-linecap="round" stroke-linejoin="round"/>
<path d="M3 14H91V64.7747C91 68.0833 89.7123 71.2565 87.4202 73.5961C85.1281 75.9356 82.0193 77.25 78.7778 77.25H15.2222C11.9807 77.25 8.87192 75.9356 6.57981 73.5961C4.28769 71.2565 3 68.0833 3 64.7747V14V14Z" stroke="white" stroke-width="5.86667" stroke-linecap="round" stroke-linejoin="round"/>
<path d="M47 3V11.25" stroke="white" stroke-width="5.86667" stroke-linecap="round" stroke-linejoin="round"/>
<path d="M19.5 60.75C19.7661 60.0031 39.0938 41.8438 39.0938 41.8438L49.5437 51.9271L71.75 30.5" stroke="white" stroke-width="5.86667" stroke-linecap="round" stroke-linejoin="round"/>
<path d="M71.75 38.75V30.5H60.75" stroke="white" stroke-width="5.86667" stroke-linecap="round" stroke-linejoin="round"/>
</svg>