<svg width="65" height="64" viewBox="0 0 65 64" fill="none" xmlns="http://www.w3.org/2000/svg">
<rect x="0.5" width="64" height="64" rx="32" fill="#FB97B4"/>
<g clip-path="url(#clip0_47_895)">
<path d="M44.0798 43.7931H20.9201C20.4843 43.7938 20.0527 43.7151 19.65 43.5616C19.2473 43.408 18.8814 43.1828 18.5733 42.8986C18.2652 42.6144 18.0209 42.2769 17.8545 41.9055C17.688 41.5341 17.6027 41.136 17.6034 40.7341V25.4728C17.6027 25.0709 17.688 24.6728 17.8545 24.3014C18.0209 23.93 18.2652 23.5925 18.5733 23.3084C18.8814 23.0242 19.2473 22.7989 19.65 22.6454C20.0527 22.4919 20.4843 22.4132 20.9201 22.4138H44.0798C44.5156 22.4132 44.9471 22.4919 45.3499 22.6454C45.7526 22.7989 46.1185 23.0242 46.4266 23.3084C46.7347 23.5925 46.979 23.93 47.1454 24.3014C47.3118 24.6728 47.3972 25.0709 47.3965 25.4728V40.7341C47.3972 41.136 47.3118 41.5341 47.1454 41.9055C46.979 42.2769 46.7347 42.6144 46.4266 42.8986C46.1185 43.1828 45.7526 43.408 45.3499 43.5616C44.9471 43.7151 44.5156 43.7938 44.0798 43.7931Z" stroke="white" stroke-width="2" stroke-linecap="round" stroke-linejoin="round"/>
<path d="M42.9828 43.7931V45.931" stroke="white" stroke-width="2" stroke-linecap="round" stroke-linejoin="round"/>
<path d="M23.1207 43.7931V45.931" stroke="white" stroke-width="2" stroke-linecap="round" stroke-linejoin="round"/>
<path d="M37.7468 40H23.2532C22.7887 39.9986 22.3436 39.8184 22.0151 39.4989C21.6867 39.1794 21.5015 38.7464 21.5 38.2945V27.7054C21.5015 27.2536 21.6867 26.8206 22.0151 26.5011C22.3436 26.1816 22.7887 26.0014 23.2532 26H37.7468C38.2113 26.0014 38.6564 26.1816 38.9849 26.5011C39.3133 26.8206 39.4985 27.2536 39.5 27.7054V38.2945C39.4985 38.7464 39.3133 39.1794 38.9849 39.4989C38.6564 39.8184 38.2113 39.9986 37.7468 40V40Z" stroke="white" stroke-width="2" stroke-linecap="round" stroke-linejoin="round"/>
<path d="M33.0518 22.4138L37.4655 17.069" stroke="white" stroke-width="2" stroke-linecap="round" stroke-linejoin="round"/>
<path d="M33.0517 22.4138L27.5344 17.069" stroke="white" stroke-width="2" stroke-linecap="round" stroke-linejoin="round"/>
<path d="M43.1914 27.6715C43.3253 27.7301 43.4707 27.7598 43.6176 27.7586C43.7598 27.7584 43.9003 27.7287 44.0296 27.6715C44.163 27.6242 44.283 27.5473 44.3801 27.447C44.586 27.2453 44.7032 26.9743 44.7068 26.6908C44.7083 26.5505 44.6801 26.4115 44.6239 26.2822C44.5677 26.1529 44.4847 26.0362 44.3801 25.9391C44.2841 25.8332 44.1642 25.75 44.0296 25.6962C43.7599 25.5956 43.4611 25.5956 43.1914 25.6962C43.0539 25.7544 42.9286 25.8368 42.822 25.9391C42.616 26.1384 42.5001 26.4088 42.5 26.6908C42.5039 26.9733 42.6191 27.2438 42.822 27.447C42.9294 27.5438 43.0547 27.62 43.1914 27.6715Z" fill="white"/>
<path d="M44.0297 31.048C43.8971 30.9936 43.7545 30.9656 43.6106 30.9656C43.4666 30.9656 43.324 30.9936 43.1914 31.048C43.0554 31.103 42.9304 31.1806 42.822 31.2774C42.6165 31.4792 42.5009 31.751 42.5 32.0345C42.5001 32.3167 42.616 32.5874 42.822 32.7869C42.9292 32.8852 43.0545 32.963 43.1914 33.0163C43.326 33.0729 43.471 33.1026 43.6176 33.1035C43.7596 33.101 43.8996 33.0713 44.0297 33.0163C44.1614 32.9639 44.2807 32.8858 44.3801 32.7869C44.4837 32.689 44.5659 32.5719 44.622 32.4427C44.6781 32.3135 44.707 32.1747 44.7069 32.0345C44.7066 31.8936 44.6775 31.7543 44.6215 31.6243C44.5654 31.4944 44.4834 31.3765 44.3801 31.2774C44.282 31.177 44.1624 31.0987 44.0297 31.048Z" fill="white"/>
</g>
<defs>
<clipPath id="clip0_47_895">
<rect width="32" height="31" fill="white" transform="translate(16.5 16)"/>
</clipPath>
</defs>
</svg>