<svg width="144" height="30" viewBox="0 0 144 30" fill="none" xmlns="http://www.w3.org/2000/svg">
<g clip-path="url(#clip0_1083_4413)">
<path d="M16.6155 6.19821L8.30775 11.498L16.6155 16.7977L8.30775 22.0975L0 16.7691L8.30775 11.4693L0 6.19821L8.30775 0.898438L16.6155 6.19821ZM8.26478 23.802L16.5725 18.5023L24.8803 23.802L16.5725 29.1018L8.26478 23.802ZM16.6155 16.7691L24.9232 11.4693L16.6155 6.19821L24.8803 0.898438L33.188 6.19821L24.8803 11.498L33.188 16.7977L24.8803 22.0975L16.6155 16.7691Z" fill="#05294B"/>
<path d="M39.7051 6.19816H46.4229C50.7057 6.19816 54.2436 8.67615 54.2436 14.334V15.5229C54.2436 21.2237 50.9349 23.7876 46.5518 23.7876H39.7051V6.19816ZM43.4579 9.39234V20.5791H46.3369C48.772 20.5791 50.4049 18.9892 50.4049 15.4513V14.5202C50.4049 10.9823 48.686 9.39234 46.208 9.39234H43.4579V9.39234ZM56.2346 9.56422H59.2426L59.7296 12.873C60.3026 10.6242 61.7636 9.42099 64.4135 9.42099H65.3445V13.2168H63.7975C60.7466 13.2168 60.0018 14.2767 60.0018 17.2847V23.8306H56.2919V9.56422H56.2346ZM66.0893 16.9839V16.5828C66.0893 11.813 69.1403 9.20613 73.2942 9.20613C77.534 9.20613 80.499 11.813 80.499 16.5828V16.9839C80.499 21.6677 77.6199 24.1887 73.2942 24.1887C68.6962 24.1457 66.0893 21.6821 66.0893 16.9839ZM76.7032 16.9409V16.5828C76.7032 13.9329 75.3711 12.343 73.2512 12.343C71.1742 12.343 69.7992 13.804 69.7992 16.5828V16.9409C69.7992 19.5049 71.1313 20.9659 73.2512 20.9659C75.3711 20.9229 76.7032 19.5049 76.7032 16.9409ZM82.447 9.56422H85.5409L85.899 12.2571C86.6438 10.4523 88.2338 9.20613 90.5829 9.20613C94.2068 9.20613 96.5988 11.813 96.5988 16.6401V17.0412C96.5988 21.725 93.9489 24.203 90.5829 24.203C88.334 24.203 86.7871 23.1861 86.0279 21.5532V28.758H82.404L82.447 9.56422ZM92.8317 16.9409V16.6258C92.8317 13.7897 91.3707 12.386 89.4226 12.386C87.3457 12.386 85.9706 13.9759 85.9706 16.6258V16.898C85.9706 19.4189 87.3027 21.0089 89.3797 21.0089C91.5139 20.9659 92.8317 19.6051 92.8317 16.9409ZM102.085 21.1951L101.77 23.802H98.5898V4.79443H102.214V12.0852C103.016 10.2231 104.606 9.20613 106.855 9.20613C110.264 9.2491 112.785 11.5982 112.785 16.325V16.769C112.785 21.4959 110.393 24.203 106.769 24.203C104.377 24.1457 102.83 23.0428 102.085 21.1951ZM108.974 16.769V16.4109C108.974 13.804 107.556 12.343 105.565 12.343C103.531 12.343 102.113 13.9759 102.113 16.4539V16.769C102.113 19.4189 103.489 20.9659 105.522 20.9659C107.7 20.9659 108.974 19.6051 108.974 16.769ZM114.375 16.9839V16.5828C114.375 11.813 117.425 9.20613 121.579 9.20613C125.819 9.20613 128.784 11.813 128.784 16.5828V16.9839C128.784 21.6677 125.862 24.1887 121.579 24.1887C116.981 24.1457 114.375 21.6821 114.375 16.9839ZM125.017 16.9409V16.5828C125.017 13.9329 123.685 12.343 121.565 12.343C119.488 12.343 118.113 13.804 118.113 16.5828V16.9409C118.113 19.5049 119.445 20.9659 121.565 20.9659C123.699 20.9229 125.017 19.5049 125.017 16.9409ZM133.64 16.4109L128.641 9.56422H132.924L135.803 13.847L138.725 9.56422H142.965L137.894 16.368L143.237 23.802H139.04L135.774 19.0752L132.594 23.802H128.211L133.64 16.4109Z" fill="#05294B"/>
</g>
<defs>
<clipPath id="clip0_1083_4413">
<rect width="143.237" height="28.2034" fill="white" transform="translate(0 0.898438)"/>
</clipPath>
</defs>
</svg>