<svg width="94" height="94" viewBox="0 0 94 94" fill="none" xmlns="http://www.w3.org/2000/svg">
<path d="M48.8678 21.3277H14.3846C12.8816 21.3245 11.3927 21.6185 10.0031 22.1929C8.61361 22.7673 7.35073 23.6108 6.28681 24.6751C5.22289 25.7394 4.37882 27.0036 3.8029 28.3954C3.22698 29.7872 2.93054 31.2791 2.93054 32.7859V66.2383C2.93054 69.2836 4.1373 72.2042 6.28535 74.3576C8.4334 76.511 11.3468 77.7208 14.3846 77.7208H26.9041L25.7175 90.9998L42.9349 77.6237H74.1975C75.7037 77.6397 77.1982 77.3577 78.5956 76.7939C79.9929 76.2301 81.2656 75.3955 82.3408 74.338C83.416 73.2804 84.2726 72.0206 84.8614 70.6308C85.4503 69.2409 85.7599 67.7482 85.7726 66.2383V61.2617" stroke="white" stroke-width="5.61256" stroke-linecap="round" stroke-linejoin="round"/>
<path d="M72.1875 50.751V59.1505" stroke="white" stroke-width="5.61256" stroke-linecap="round" stroke-linejoin="round"/>
<path d="M72.1877 3.00003C73.5635 3.00002 74.9258 3.27209 76.1966 3.80064C77.4674 4.32919 78.6218 5.10384 79.5935 6.08024C80.5652 7.05664 81.3353 8.21562 81.8596 9.49079C82.3839 10.766 82.6521 12.1323 82.6489 13.5115V30.3105C82.6521 31.6898 82.3839 33.0561 81.8596 34.3313C81.3353 35.6064 80.5652 36.7654 79.5935 37.7418C78.6218 38.7182 77.4674 39.4929 76.1966 40.0214C74.9258 40.55 73.5635 40.822 72.1877 40.822V40.822C69.4003 40.8209 66.7271 39.7122 64.7535 37.739C63.7836 36.7685 63.0178 35.6128 62.5014 34.3403C61.972 33.0632 61.7004 31.6935 61.7023 30.3105V13.5115C61.6991 12.1302 61.9681 10.7619 62.494 9.48518C63.0198 8.20842 63.792 7.04837 64.7663 6.07164C65.7406 5.09492 66.8977 4.32078 68.1713 3.79366C69.4449 3.26654 70.8099 2.99683 72.1877 3.00003V3.00003Z" stroke="white" stroke-width="5.61256" stroke-linecap="round" stroke-linejoin="round"/>
<path d="M90.9305 33.9517C90.4311 38.5888 88.24 42.8774 84.7782 45.9933C81.3163 49.1093 76.8279 50.8329 72.1754 50.8329C67.5229 50.8329 63.0345 49.1093 59.5726 45.9933C56.1108 42.8774 53.9196 38.5888 53.4203 33.9517" stroke="white" stroke-width="5.61256" stroke-linecap="round" stroke-linejoin="round"/>
</svg>