<svg width="80" height="32" viewBox="0 0 80 32" fill="none" xmlns="http://www.w3.org/2000/svg">
<g clip-path="url(#clip0_1083_4424)">
<path d="M0.0683594 29.3416H15.4286V31.4924H0.0683594V29.3416Z" fill="#05294B"/>
<path d="M0.0683594 25.2158H15.4286V27.3743H0.0683594V25.2158Z" fill="#05294B"/>
<path d="M4.45117 21.0977H11.0397V23.2562H4.45117V21.0977Z" fill="#05294B"/>
<path d="M4.45117 16.9797H11.0397V19.1383H4.45117V16.9797Z" fill="#05294B"/>
<path d="M4.45117 12.8618H11.0397V15.0203H4.45117V12.8618Z" fill="#05294B"/>
<path d="M4.45117 8.73608H11.0397V10.8946H4.45117V8.73608Z" fill="#05294B"/>
<path d="M15.4286 4.61792H0.0683594V6.77645H15.4286V4.61792Z" fill="#05294B"/>
<path d="M15.4286 0.5H0.0683594V2.65853H15.4286V0.5Z" fill="#05294B"/>
<path d="M17.6191 27.3743H41.2424C41.6415 26.7084 41.9388 25.9813 42.1189 25.2158H17.6191V27.3743Z" fill="#05294B"/>
<path d="M39.4045 16.9797H22.0098V19.1383H41.2433C40.7425 18.3115 40.1243 17.5844 39.4045 16.9797Z" fill="#05294B"/>
<path d="M22.0098 12.8618V15.0203H39.4045C40.14 14.4156 40.7581 13.6885 41.2433 12.8618H22.0098Z" fill="#05294B"/>
<path d="M41.2425 4.61792H17.6191V6.77645H42.1189C41.9154 6.01101 41.6181 5.2839 41.2425 4.61792Z" fill="#05294B"/>
<path d="M33.981 0.5H17.6191V2.65853H39.6227C38.1516 1.32664 36.1563 0.5 33.981 0.5Z" fill="#05294B"/>
<path d="M28.5905 8.73608H22.0098V10.8946H28.5905V8.73608Z" fill="#05294B"/>
<path d="M35.1777 10.8946H42.0636C42.2592 10.2058 42.361 9.47857 42.361 8.73608H35.1777V10.8946Z" fill="#05294B"/>
<path d="M22.0098 21.0977H28.5905V23.2562H22.0098V21.0977Z" fill="#05294B"/>
<path d="M35.1777 21.0977V23.2562H42.361C42.361 22.5137 42.2592 21.7866 42.0636 21.0977H35.1777Z" fill="#05294B"/>
<path d="M17.6191 31.4771L33.981 31.5001C36.172 31.5001 38.1516 30.6734 39.6305 29.3416H17.6191V31.4771Z" fill="#05294B"/>
<path d="M43.959 29.3416H54.9294V31.4924H43.959V29.3416Z" fill="#05294B"/>
<path d="M43.959 25.2158H54.9294V27.3743H43.959V25.2158Z" fill="#05294B"/>
<path d="M48.3418 21.0977H54.9303V23.2562H48.3418V21.0977Z" fill="#05294B"/>
<path d="M48.3418 16.9797H54.9303V19.1383H48.3418V16.9797Z" fill="#05294B"/>
<path d="M57.9812 4.61792H43.959V6.77645H58.7401L57.9812 4.61792Z" fill="#05294B"/>
<path d="M56.5257 0.5H43.959V2.65853H57.2847L56.5257 0.5Z" fill="#05294B"/>
<path d="M68.0918 29.3416H79.0701V31.4924H68.0918V29.3416Z" fill="#05294B"/>
<path d="M68.0918 25.2158H79.0701V27.3743H68.0918V25.2158Z" fill="#05294B"/>
<path d="M68.0918 21.0977H74.6803V23.2562H68.0918V21.0977Z" fill="#05294B"/>
<path d="M68.0918 16.9797H74.6803V19.1383H68.0918V16.9797Z" fill="#05294B"/>
<path d="M68.0918 15.0203H74.6803V12.8618H68.0918H62.1293L61.5111 14.6071L60.8929 12.8618H54.9303H48.3418V15.0203H54.9303V13.0379L55.6268 15.0203H67.3954L68.0918 13.0379V15.0203Z" fill="#05294B"/>
<path d="M74.6789 8.73608H63.5832L62.8242 10.8946H74.6789V8.73608Z" fill="#05294B"/>
<path d="M66.5032 0.5L65.7441 2.65853H79.0699V0.5H66.5032Z" fill="#05294B"/>
<path d="M61.511 31.4771L62.2699 29.3416H60.752L61.511 31.4771Z" fill="#05294B"/>
<path d="M60.054 27.3743H62.9648L63.7473 25.2158H59.2793L60.054 27.3743Z" fill="#05294B"/>
<path d="M58.5755 23.2562H64.4441L65.2188 21.0977H57.8008L58.5755 23.2562Z" fill="#05294B"/>
<path d="M57.1047 19.1383H65.9233L66.6746 16.9797H56.3457L57.1047 19.1383Z" fill="#05294B"/>
<path d="M48.3418 10.8946H60.1965L59.4375 8.73608H48.3418V10.8946Z" fill="#05294B"/>
<path d="M64.2871 6.77645H79.0683V4.61792H65.0383L64.2871 6.77645Z" fill="#05294B"/>
</g>
<defs>
<clipPath id="clip0_1083_4424">
<rect width="79" height="31" fill="white" transform="translate(0.0683594 0.5)"/>
</clipPath>
</defs>
</svg>