<svg width="101" height="34" viewBox="0 0 101 34" fill="none" xmlns="http://www.w3.org/2000/svg">
<g clip-path="url(#clip0_1083_4470)">
<path d="M0.497491 23.7188C0.375211 22.6689 0.434095 21.1393 0.434095 20.3725L2.02385 2.31788H7.86666L6.27669 20.5321C5.937 24.4856 7.4679 27.284 11.3811 27.284C15.3533 27.284 17.4639 24.4537 17.7991 20.9478L19.4839 2.31748H25.3539L23.7325 20.6966C23.0625 27.7952 18.4153 33.0815 10.8921 33.0815C5.0221 33.0815 1.23089 29.2651 0.497695 23.7188H0.497491ZM27.7361 17.606C28.5017 8.94594 34.3129 1.747 44.3081 1.747C46.9668 1.747 49.5033 2.35417 52.0169 4.01126L51.3419 11.1739C49.0501 8.08337 46.2963 7.60856 43.7599 7.60856C37.5231 7.60856 34.0991 11.9728 33.6099 17.4829C33.1479 22.8926 35.9017 27.2565 41.9575 27.2565C44.589 27.2565 47.3699 26.4896 50.3051 23.5313L49.662 30.8855C46.8176 32.4468 44.1588 33.1453 41.5 33.1453C31.5584 33.1453 27.0068 25.7226 27.7352 17.6056L27.7361 17.606ZM56.7232 2.31712H62.5612L60.4189 26.8365H68.7981C69.4095 26.8365 71.3978 26.8091 71.9459 26.8091C71.9187 27.0967 71.3979 32.4426 71.3979 32.4426H54.0599L56.7231 2.31714L56.7232 2.31712ZM88.7043 0.952222H88.2785L72.2585 32.4468H78.4953L80.7237 27.6673H92.0377L93.4463 32.4468H99.6195L88.7143 0.951416L88.7043 0.952222ZM87.2196 13.5605C87.4053 13.145 87.5548 12.6063 87.6454 12.3187H87.7405C87.7677 12.7022 87.8311 13.1495 87.9534 13.5924C88.2568 14.9619 90.5531 22.5762 90.5531 22.5762H83.1479C83.1479 22.5762 87.1246 13.7835 87.2195 13.5598L87.2196 13.5605Z" fill="#05294B"/>
</g>
<defs>
<clipPath id="clip0_1083_4470">
<rect width="100" height="33" fill="white" transform="translate(0.0683594 0.5)"/>
</clipPath>
</defs>
</svg>