<svg width="144" height="30" viewBox="0 0 144 30" fill="none" xmlns="http://www.w3.org/2000/svg">
<g clip-path="url(#clip0_777_3408)">
<path d="M131.408 7.98699H125.465V21.1582H131.697C134.685 21.1582 134.769 17.2964 134.769 17.2964V12.2018C134.743 7.72356 131.408 7.98699 131.408 7.98699Z" fill="#05294B"/>
<path d="M114.986 0V29.2401H143.7V0H114.986ZM131.845 24.5828C124.649 24.5828 121.398 24.6724 121.398 24.6724V4.74164H129.917C129.917 4.74164 138.695 3.77224 138.695 11.675V17.2069C138.695 17.2069 139.048 24.5828 131.845 24.5828Z" fill="#05294B"/>
<path d="M76.7893 10.4474C76.7893 7.63932 73.8073 8.0766 73.8073 8.0766H68.2754V13.519C68.2754 13.519 71.2573 13.4347 73.7177 13.4347C76.1781 13.4347 76.7893 12.9078 76.7893 10.4474Z" fill="#05294B"/>
<path d="M57.8232 29.2401H86.5365V0H57.8232V29.2401ZM64.4089 4.65207H75.8257C75.8257 4.65207 80.7412 4.38865 80.7412 9.74671C80.7412 15.1048 77.7592 15.3629 77.7592 15.3629C77.7592 15.3629 80.7412 15.542 80.7412 19.6673V24.2351H76.7898V19.9307C76.7898 19.9307 76.7898 16.5957 74.5086 16.5957C72.2273 16.5957 68.2759 16.68 68.2759 16.68V24.3193H64.4089V4.65207Z" fill="#05294B"/>
<path d="M0.396484 29.2401H29.1098V0H0.396484V29.2401ZM6.80824 4.74164L9.53205 19.7568L13.0409 4.74164L17.3452 4.82594L20.8593 20.0203L23.4935 4.74164H27.2658L23.2565 24.4089H18.3357L15.1746 10.0944L11.7501 24.4985H6.92415L2.88321 4.74164H6.80824Z" fill="#05294B"/>
<path d="M36.881 7.94487H41.6964V21.1161H36.8652V24.4511H50.7583V21.1161H45.4898V7.94487H50.7583V4.60992H36.881V7.94487Z" fill="#05294B"/>
<path d="M91.8047 7.9027H94.5285V21.1635H91.8047V24.4089H108.574V18.0024H105.239V21.1635H98.1269V15.8054H103.395V12.5548H98.1269V7.9027H104.976V11.0638H108.574V4.65204H91.8047V7.9027Z" fill="#05294B"/>
</g>
<defs>
<clipPath id="clip0_777_3408">
<rect width="143.303" height="29.2401" fill="white" transform="translate(0.396484)"/>
</clipPath>
</defs>
</svg>