<svg width="107" height="24" viewBox="0 0 107 24" fill="none" xmlns="http://www.w3.org/2000/svg">
<g clip-path="url(#clip0_1083_4421)">
<path fill-rule="evenodd" clip-rule="evenodd" d="M86.4025 7.24047C86.8071 7.93842 86.9394 8.73251 86.9831 9.62523L87.0406 10.8151V19.1356L87.0992 20.3267C87.2166 22.272 88.6512 23.7103 90.6115 23.8327L91.7964 23.8914V10.8151L91.855 9.62523C91.9037 8.7425 92.0348 7.93342 92.4456 7.23048C92.8642 6.50947 93.4651 5.91128 94.188 5.49595C94.9108 5.08062 95.7303 4.86278 96.564 4.8643C97.3977 4.86582 98.2163 5.08664 98.9377 5.5046C99.659 5.92256 100.258 6.52294 100.674 7.24546C101.078 7.94341 101.204 8.75249 101.253 9.62523L101.312 10.8114V19.1356L101.37 20.3267C101.493 22.282 102.916 23.7203 104.883 23.8327L106.067 23.8914V9.62523C106.067 7.10259 105.066 4.68321 103.282 2.89908C101.499 1.11495 99.0798 0.112136 96.5571 0.111143C95.207 0.109719 93.872 0.396447 92.6415 0.952171C91.411 1.50789 90.3132 2.31982 89.4216 3.3337C88.5295 2.32022 87.4317 1.50849 86.2013 0.952602C84.9709 0.396713 83.6362 0.10943 82.286 0.109894C80.3108 0.109894 78.4779 0.709208 76.9596 1.74427C76.0332 0.710455 73.9606 0.109894 72.7707 0.109894V23.8914L73.9606 23.8327C75.9508 23.7016 77.3891 22.302 77.4665 20.3267L77.5302 19.1356V10.8151L77.5889 9.62523C77.6388 8.72751 77.7637 7.93842 78.1695 7.23548C78.5884 6.51492 79.189 5.91686 79.9114 5.50103C80.6337 5.08519 81.4525 4.86612 82.286 4.86569C83.1201 4.86587 83.9396 5.08538 84.6621 5.50219C85.3846 5.919 85.9848 6.51847 86.4025 7.24047V7.24047ZM4.99213 23.8339L6.18201 23.8914H24.0178L23.9591 22.7052C23.7981 20.75 22.4134 19.3216 20.4519 19.1943L19.262 19.1356H8.56178L22.8279 4.86444L22.7692 3.67955C22.6768 1.70432 21.2335 0.277203 19.262 0.168577L18.0721 0.114888L0.236328 0.109894L0.295011 1.29978C0.451082 3.23631 1.85572 4.69464 3.80099 4.80701L4.99213 4.86569H15.6924L1.42621 19.1368L1.4849 20.3267C1.60226 22.287 3.01689 23.7066 4.99213 23.8327V23.8339ZM68.1023 3.5909C69.2066 4.69504 70.0827 6.00591 70.6804 7.44865C71.2781 8.89139 71.5857 10.4377 71.5857 11.9994C71.5857 13.561 71.2781 15.1074 70.6804 16.5501C70.0827 17.9929 69.2066 19.3037 68.1023 20.4079C65.8711 22.6373 62.846 23.8896 59.6919 23.8896C56.5378 23.8896 53.5127 22.6373 51.2816 20.4079C46.6381 15.7644 46.6381 8.23433 51.2816 3.5909C52.3849 2.48714 53.6949 1.61151 55.1366 1.01403C56.5784 0.416538 58.1238 0.108889 59.6844 0.108645C61.2476 0.10756 62.7957 0.414667 64.2401 1.0124C65.6845 1.61013 66.9969 2.48677 68.1023 3.59215V3.5909ZM64.7374 6.95829C66.0749 8.29678 66.8262 10.1116 66.8262 12.0038C66.8262 13.896 66.0749 15.7107 64.7374 17.0492C63.3989 18.3867 61.5841 19.138 59.6919 19.138C57.7997 19.138 55.9849 18.3867 54.6464 17.0492C53.309 15.7107 52.5577 13.896 52.5577 12.0038C52.5577 10.1116 53.309 8.29678 54.6464 6.95829C55.9849 5.62081 57.7997 4.86951 59.6919 4.86951C61.5841 4.86951 63.3989 5.62081 64.7374 6.95829V6.95829ZM34.728 0.108645C36.2888 0.109053 37.8342 0.416899 39.276 1.0146C40.7177 1.61231 42.0276 2.48816 43.1309 3.59215C47.7756 8.23433 47.7756 15.7657 43.1309 20.4079C40.8997 22.6373 37.8746 23.8896 34.7205 23.8896C31.5664 23.8896 28.5414 22.6373 26.3102 20.4079C21.6668 15.7644 21.6668 8.23433 26.3102 3.5909C27.4135 2.48714 28.7235 1.61151 30.1653 1.01403C31.607 0.416538 33.1524 0.108889 34.7131 0.108645H34.728ZM39.766 6.9558C41.1039 8.29434 41.8554 10.1094 41.8554 12.0019C41.8554 13.8944 41.1039 15.7094 39.766 17.048C38.4275 18.3855 36.6127 19.1368 34.7205 19.1368C32.8283 19.1368 31.0136 18.3855 29.6751 17.048C28.3376 15.7095 27.5863 13.8947 27.5863 12.0025C27.5863 10.1103 28.3376 8.29554 29.6751 6.95704C31.0136 5.61956 32.8283 4.86826 34.7205 4.86826C36.6127 4.86826 38.4275 5.61956 39.766 6.95704V6.9558Z" fill="#05294B"/>
</g>
<defs>
<clipPath id="clip0_1083_4421">
<rect width="105.831" height="23.7827" fill="white" transform="translate(0.236328 0.108643)"/>
</clipPath>
</defs>
</svg>
